<?xml version="1.0" encoding="UTF-8"?>
<svg width="119px" height="20px" viewBox="0 0 119 20" version="1.1" xmlns="http://www.w3.org/2000/svg" xmlns:xlink="http://www.w3.org/1999/xlink">
    <!-- Generator: Sketch 43.2 (39069) - http://www.bohemiancoding.com/sketch -->
    <title>segments</title>
    <desc>Created with Sketch.</desc>
    <defs></defs>
    <g id="Page-1" stroke="none" stroke-width="1" fill="none" fill-rule="evenodd">
        <g id="model-optimizer" transform="translate(-20.000000, -187.000000)" fill="#FFFFFF">
            <g id="left-sidebar">
                <g id="segments" transform="translate(20.000000, 187.250000)">
                    <path d="M49.4599609,11.484375 C49.4599609,11.251952 49.4246423,11.0468759 49.3540039,10.8691406 C49.2833655,10.6914054 49.1580413,10.5284838 48.9780273,10.3803711 C48.7980134,10.2322584 48.5553401,10.0932624 48.25,9.96337891 C47.9446599,9.83349544 47.557294,9.700196 47.0878906,9.56347656 C46.5957007,9.42219981 46.1502299,9.26155689 45.7514648,9.08154297 C45.3526998,8.90152905 45.013185,8.69417435 44.7329102,8.45947266 C44.4526353,8.22477096 44.2373054,7.95703275 44.0869141,7.65625 C43.9365227,7.35546725 43.8613281,7.01139517 43.8613281,6.62402344 C43.8613281,6.23665171 43.9422192,5.87776858 44.1040039,5.54736328 C44.2657886,5.21695798 44.4947902,4.92985148 44.7910156,4.68603516 C45.0872411,4.44221883 45.4427063,4.25195381 45.8574219,4.11523438 C46.2721375,3.97851494 46.734698,3.91015625 47.2451172,3.91015625 C47.8056669,3.91015625 48.3046853,3.9944653 48.7421875,4.16308594 C49.1796897,4.33170657 49.5476873,4.55501163 49.8461914,4.83300781 C50.1446955,5.11100399 50.3714185,5.43228984 50.5263672,5.796875 C50.6813159,6.16146016 50.7587891,6.53743296 50.7587891,6.92480469 L49.4394531,6.92480469 C49.4394531,6.64680851 49.39502,6.3893241 49.3061523,6.15234375 C49.2172847,5.9153634 49.0817066,5.71028732 48.8994141,5.53710938 C48.7171215,5.36393143 48.4892592,5.22949267 48.2158203,5.13378906 C47.9423814,5.03808546 47.618817,4.99023438 47.2451172,4.99023438 C46.894204,4.99023438 46.5888685,5.03124959 46.3291016,5.11328125 C46.0693346,5.19531291 45.8551441,5.30810475 45.6865234,5.45166016 C45.5179028,5.59521556 45.3925785,5.76497298 45.3105469,5.9609375 C45.2285152,6.15690202 45.1875,6.37109259 45.1875,6.60351562 C45.1875,6.81315209 45.2319331,7.00455643 45.3208008,7.17773438 C45.4096684,7.35091232 45.5475251,7.51041594 45.734375,7.65625 C45.9212249,7.80208406 46.1616196,7.93652282 46.4555664,8.05957031 C46.7495132,8.1826178 47.1015604,8.3011062 47.5117188,8.41503906 C48.0768257,8.57454507 48.5644511,8.75113835 48.9746094,8.94482422 C49.3847677,9.13851008 49.7231432,9.35839721 49.9897461,9.60449219 C50.256349,9.85058717 50.4545892,10.1263006 50.5844727,10.4316406 C50.7143561,10.7369807 50.7792969,11.0833314 50.7792969,11.4707031 C50.7792969,11.8763041 50.6972664,12.2431624 50.5332031,12.5712891 C50.3691398,12.8994157 50.1355809,13.1796863 49.8325195,13.4121094 C49.5294581,13.6445324 49.1648784,13.8234043 48.7387695,13.9487305 C48.3126606,14.0740566 47.8375677,14.1367188 47.3134766,14.1367188 C47.0081365,14.1367188 46.702801,14.108236 46.3974609,14.0512695 C46.0921209,13.9943031 45.7993178,13.9088547 45.519043,13.7949219 C45.2387681,13.680989 44.9790051,13.5397144 44.7397461,13.3710938 C44.5004871,13.2024731 44.2919931,13.0065115 44.1142578,12.7832031 C43.9365225,12.5598947 43.7975265,12.3092462 43.6972656,12.03125 C43.5970047,11.7532538 43.546875,11.4479183 43.546875,11.1152344 L44.8662109,11.1152344 C44.8662109,11.457033 44.9334303,11.749836 45.0678711,11.9936523 C45.2023119,12.2374687 45.3823231,12.4391268 45.6079102,12.5986328 C45.8334972,12.7581388 46.0932602,12.8754879 46.387207,12.9506836 C46.6811538,13.0258793 46.9899072,13.0634766 47.3134766,13.0634766 C48.0061884,13.0634766 48.5371075,12.9222019 48.90625,12.6396484 C49.2753925,12.3570949 49.4599609,11.9720076 49.4599609,11.484375 Z M58.5869141,9.39941406 L54.2734375,9.39941406 L54.2734375,12.9267578 L59.2841797,12.9267578 L59.2841797,14 L52.9609375,14 L52.9609375,4.046875 L59.2158203,4.046875 L59.2158203,5.12695312 L54.2734375,5.12695312 L54.2734375,8.32617188 L58.5869141,8.32617188 L58.5869141,9.39941406 Z M68.7666016,12.6943359 C68.670898,12.8310554 68.5387378,12.9825838 68.3701172,13.1489258 C68.2014966,13.3152678 67.9793308,13.4713534 67.7036133,13.6171875 C67.4278958,13.7630216 67.0895202,13.8860672 66.6884766,13.9863281 C66.2874329,14.086589 65.8066434,14.1367188 65.2460938,14.1367188 C64.6399709,14.1367188 64.0828476,14.0296235 63.574707,13.8154297 C63.0665665,13.6012359 62.6290708,13.2924825 62.262207,12.8891602 C61.8953432,12.4858378 61.609376,11.9913766 61.4042969,11.4057617 C61.1992177,10.8201468 61.0966797,10.1559282 61.0966797,9.41308594 L61.0966797,8.63378906 C61.0966797,7.89094681 61.1844067,7.2278675 61.3598633,6.64453125 C61.5353199,6.061195 61.7928043,5.5667338 62.1323242,5.16113281 C62.4718441,4.75553183 62.8899715,4.44563909 63.3867188,4.23144531 C63.883466,4.01725153 64.4531218,3.91015625 65.0957031,3.91015625 C65.6653674,3.91015625 66.1643859,3.98649012 66.5927734,4.13916016 C67.021161,4.29183019 67.3857407,4.50374213 67.6865234,4.77490234 C67.9873062,5.04606255 68.2265616,5.36848771 68.4042969,5.7421875 C68.5820321,6.11588729 68.7027992,6.52376081 68.7666016,6.96582031 L67.4541016,6.96582031 C67.4039711,6.69693876 67.3253586,6.44287229 67.2182617,6.20361328 C67.1111648,5.96435427 66.9641936,5.75472095 66.7773438,5.57470703 C66.5904939,5.39469311 66.3603529,5.25227917 66.0869141,5.14746094 C65.8134752,5.04264271 65.4853535,4.99023438 65.1025391,4.99023438 C64.637693,4.99023438 64.2366553,5.07454343 63.8994141,5.24316406 C63.5621728,5.4117847 63.2841808,5.65331874 63.0654297,5.96777344 C62.8466786,6.28222813 62.683757,6.66275818 62.5766602,7.109375 C62.4695633,7.55599182 62.4160156,8.05956751 62.4160156,8.62011719 L62.4160156,9.41308594 C62.4160156,9.98730756 62.4843743,10.4999977 62.6210938,10.9511719 C62.7578132,11.402346 62.9503568,11.7851547 63.1987305,12.0996094 C63.4471041,12.4140641 63.7456037,12.6533195 64.0942383,12.8173828 C64.4428728,12.9814461 64.8290994,13.0634766 65.2529297,13.0634766 C65.6084002,13.0634766 65.9103178,13.039551 66.1586914,12.9916992 C66.407065,12.9438474 66.6166984,12.8846032 66.7875977,12.8139648 C66.9584969,12.7433265 67.0963536,12.6658533 67.2011719,12.581543 C67.3059901,12.4972327 67.3925778,12.4186202 67.4609375,12.3457031 L67.4609375,10.1103516 L65.1572266,10.1103516 L65.1572266,9.04394531 L68.7666016,9.04394531 L68.7666016,12.6943359 Z M73.1494141,4.046875 L76.4033203,12.1679688 L79.6572266,4.046875 L81.359375,4.046875 L81.359375,14 L80.046875,14 L80.046875,10.1240234 L80.1699219,5.94042969 L76.9023438,14 L75.8974609,14 L72.6367188,5.9609375 L72.7666016,10.1240234 L72.7666016,14 L71.4541016,14 L71.4541016,4.046875 L73.1494141,4.046875 Z M89.8027344,9.39941406 L85.4892578,9.39941406 L85.4892578,12.9267578 L90.5,12.9267578 L90.5,14 L84.1767578,14 L84.1767578,4.046875 L90.4316406,4.046875 L90.4316406,5.12695312 L85.4892578,5.12695312 L85.4892578,8.32617188 L89.8027344,8.32617188 L89.8027344,9.39941406 Z M100.283203,14 L98.9638672,14 L93.953125,6.33007812 L93.953125,14 L92.6337891,14 L92.6337891,4.046875 L93.953125,4.046875 L98.9775391,11.7509766 L98.9775391,4.046875 L100.283203,4.046875 L100.283203,14 Z M109.792969,5.12695312 L106.59375,5.12695312 L106.59375,14 L105.288086,14 L105.288086,5.12695312 L102.095703,5.12695312 L102.095703,4.046875 L109.792969,4.046875 L109.792969,5.12695312 Z M116.964844,11.484375 C116.964844,11.251952 116.929525,11.0468759 116.858887,10.8691406 C116.788248,10.6914054 116.662924,10.5284838 116.48291,10.3803711 C116.302896,10.2322584 116.060223,10.0932624 115.754883,9.96337891 C115.449543,9.83349544 115.062177,9.700196 114.592773,9.56347656 C114.100583,9.42219981 113.655113,9.26155689 113.256348,9.08154297 C112.857583,8.90152905 112.518068,8.69417435 112.237793,8.45947266 C111.957518,8.22477096 111.742188,7.95703275 111.591797,7.65625 C111.441405,7.35546725 111.366211,7.01139517 111.366211,6.62402344 C111.366211,6.23665171 111.447102,5.87776858 111.608887,5.54736328 C111.770671,5.21695798 111.999673,4.92985148 112.295898,4.68603516 C112.592124,4.44221883 112.947589,4.25195381 113.362305,4.11523438 C113.77702,3.97851494 114.239581,3.91015625 114.75,3.91015625 C115.31055,3.91015625 115.809568,3.9944653 116.24707,4.16308594 C116.684573,4.33170657 117.05257,4.55501163 117.351074,4.83300781 C117.649578,5.11100399 117.876301,5.43228984 118.03125,5.796875 C118.186199,6.16146016 118.263672,6.53743296 118.263672,6.92480469 L116.944336,6.92480469 C116.944336,6.64680851 116.899903,6.3893241 116.811035,6.15234375 C116.722168,5.9153634 116.586589,5.71028732 116.404297,5.53710938 C116.222004,5.36393143 115.994142,5.22949267 115.720703,5.13378906 C115.447264,5.03808546 115.1237,4.99023438 114.75,4.99023438 C114.399087,4.99023438 114.093751,5.03124959 113.833984,5.11328125 C113.574217,5.19531291 113.360027,5.30810475 113.191406,5.45166016 C113.022786,5.59521556 112.897461,5.76497298 112.81543,5.9609375 C112.733398,6.15690202 112.692383,6.37109259 112.692383,6.60351562 C112.692383,6.81315209 112.736816,7.00455643 112.825684,7.17773438 C112.914551,7.35091232 113.052408,7.51041594 113.239258,7.65625 C113.426108,7.80208406 113.666502,7.93652282 113.960449,8.05957031 C114.254396,8.1826178 114.606443,8.3011062 115.016602,8.41503906 C115.581709,8.57454507 116.069334,8.75113835 116.479492,8.94482422 C116.88965,9.13851008 117.228026,9.35839721 117.494629,9.60449219 C117.761232,9.85058717 117.959472,10.1263006 118.089355,10.4316406 C118.219239,10.7369807 118.28418,11.0833314 118.28418,11.4707031 C118.28418,11.8763041 118.202149,12.2431624 118.038086,12.5712891 C117.874023,12.8994157 117.640464,13.1796863 117.337402,13.4121094 C117.034341,13.6445324 116.669761,13.8234043 116.243652,13.9487305 C115.817543,14.0740566 115.342451,14.1367188 114.818359,14.1367188 C114.513019,14.1367188 114.207684,14.108236 113.902344,14.0512695 C113.597004,13.9943031 113.304201,13.9088547 113.023926,13.7949219 C112.743651,13.680989 112.483888,13.5397144 112.244629,13.3710938 C112.00537,13.2024731 111.796876,13.0065115 111.619141,12.7832031 C111.441405,12.5598947 111.302409,12.3092462 111.202148,12.03125 C111.101888,11.7532538 111.051758,11.4479183 111.051758,11.1152344 L112.371094,11.1152344 C112.371094,11.457033 112.438313,11.749836 112.572754,11.9936523 C112.707195,12.2374687 112.887206,12.4391268 113.112793,12.5986328 C113.33838,12.7581388 113.598143,12.8754879 113.89209,12.9506836 C114.186037,13.0258793 114.49479,13.0634766 114.818359,13.0634766 C115.511071,13.0634766 116.04199,12.9222019 116.411133,12.6396484 C116.780275,12.3570949 116.964844,11.9720076 116.964844,11.484375 Z" id="Segments"></path>
                    <g id="icons/segments" fill-rule="nonzero">
                        <ellipse id="Oval" cx="21.7942105" cy="5.88399787" rx="1" ry="1"></ellipse>
                        <ellipse id="Oval" cx="17.634" cy="5.88399787" rx="1" ry="1"></ellipse>
                        <ellipse id="Oval" cx="13.4737368" cy="5.88399787" rx="1" ry="1"></ellipse>
                        <ellipse id="Oval" cx="9.31352632" cy="5.88399787" rx="1" ry="1"></ellipse>
                        <ellipse id="Oval" cx="5.15326316" cy="5.88399787" rx="1" ry="1"></ellipse>
                        <ellipse id="Oval" cx="21.7942105" cy="10.0862839" rx="1" ry="1"></ellipse>
                        <ellipse id="Oval" cx="17.634" cy="10.0862839" rx="1" ry="1"></ellipse>
                        <ellipse id="Oval" cx="13.4737368" cy="10.0862839" rx="1" ry="1"></ellipse>
                        <ellipse id="Oval" cx="5.15326316" cy="10.0862839" rx="1" ry="1"></ellipse>
                        <ellipse id="Oval" cx="21.7942105" cy="14.2885167" rx="1" ry="1"></ellipse>
                        <ellipse id="Oval" cx="17.634" cy="14.2885167" rx="1" ry="1"></ellipse>
                        <ellipse id="Oval" cx="13.4737368" cy="14.2885167" rx="1" ry="1"></ellipse>
                        <ellipse id="Oval" cx="9.31352632" cy="14.2885167" rx="1" ry="1"></ellipse>
                        <ellipse id="Oval" cx="5.15326316" cy="14.2885167" rx="1" ry="1"></ellipse>
                        <path d="M11.2684211,7.54917597 L7.35842105,7.54917597 C7.05084211,7.54917597 6.80157895,7.80095694 6.80157895,8.11164274 L6.80157895,12.0611909 C6.80157895,12.3718767 7.05084211,12.6236576 7.35842105,12.6236576 L11.2684211,12.6236576 C11.576,12.6236576 11.8252632,12.3718767 11.8252632,12.0611909 L11.8252632,8.11174907 C11.8252632,7.8010101 11.5759474,7.54917597 11.2684211,7.54917597 Z M10.7115789,11.4986709 L7.91526316,11.4986709 L7.91526316,8.67416268 L10.7115263,8.67416268 L10.7115263,11.4986709 L10.7115789,11.4986709 Z" id="Shape"></path>
                        <path d="M25.0912105,0.0246677299 L21.0012632,0.0246677299 L19.7637895,0.0246677299 L16.3953158,0.0246677299 L15.1578421,0.0246677299 L11.7894737,0.0246677299 L10.552,0.0246677299 L7.18352632,0.0246677299 L5.94605263,0.0246677299 L1.85605263,0.0246677299 C0.832684211,0.0246677299 0,0.865709729 0,1.89952153 L0,17.2409888 C0,18.2748006 0.832684211,19.1158958 1.85615789,19.1158958 L25.0912632,19.1158958 C26.1147368,19.1158958 26.9474211,18.2748006 26.9474211,17.2409888 L26.9474211,1.89952153 C26.9473684,0.865709729 26.1146316,0.0246677299 25.0912105,0.0246677299 Z M25.0912105,17.8660287 L1.85615789,17.8660287 C1.515,17.8660287 1.23742105,17.5856459 1.23742105,17.241042 L1.23742105,1.89952153 C1.23742105,1.5549176 1.515,1.27453482 1.85615789,1.27453482 L5.94610526,1.27453482 L7.18357895,1.27453482 L10.5520526,1.27453482 L11.7895263,1.27453482 L15.1578947,1.27453482 L16.3953684,1.27453482 L19.7638421,1.27453482 L21.0013158,1.27453482 L25.0912632,1.27453482 C25.4324211,1.27453482 25.71,1.5549176 25.71,1.89952153 L25.71,17.2409888 C25.7099474,17.5856459 25.4323684,17.8660287 25.0912105,17.8660287 Z" id="Shape"></path>
                    </g>
                </g>
            </g>
        </g>
    </g>
</svg>