<?xml version="1.0" encoding="UTF-8"?>
<svg width="112px" height="22px" viewBox="0 0 112 22" version="1.1" xmlns="http://www.w3.org/2000/svg" xmlns:xlink="http://www.w3.org/1999/xlink">
    <!-- Generator: Sketch 43.2 (39069) - http://www.bohemiancoding.com/sketch -->
    <title>designer</title>
    <desc>Created with Sketch.</desc>
    <defs></defs>
    <g id="Page-1" stroke="none" stroke-width="1" fill="none" fill-rule="evenodd">
        <g id="model-optimizer" transform="translate(-20.000000, -355.000000)" fill="#FFFFFF">
            <g id="left-sidebar">
                <g id="designer" transform="translate(20.000000, 355.000000)">
                    <path d="M44.1552734,15 L44.1552734,5.046875 L46.9648438,5.046875 C47.621097,5.046875 48.2180963,5.15624891 48.7558594,5.375 C49.2936225,5.59375109 49.7550436,5.90592245 50.1401367,6.31152344 C50.5252298,6.71712442 50.8237294,7.209307 51.0356445,7.78808594 C51.2475597,8.36686487 51.3535156,9.01627244 51.3535156,9.73632812 L51.3535156,10.3242188 C51.3535156,11.0442744 51.2475597,11.693682 51.0356445,12.2724609 C50.8237294,12.8512399 50.5229512,13.3422831 50.1333008,13.7456055 C49.7436504,14.1489278 49.2708361,14.4588205 48.7148438,14.675293 C48.1588514,14.8917654 47.5367873,15 46.8486328,15 L44.1552734,15 Z M45.4677734,6.12695312 L45.4677734,13.9267578 L46.8486328,13.9267578 C47.3772813,13.9267578 47.8421204,13.8413094 48.2431641,13.6704102 C48.6442077,13.4995109 48.9791653,13.2568375 49.2480469,12.9423828 C49.5169284,12.6279281 49.7185866,12.2496767 49.8530273,11.8076172 C49.9874681,11.3655577 50.0546875,10.8710965 50.0546875,10.3242188 L50.0546875,9.71582031 C50.0546875,9.14615601 49.9863288,8.63916238 49.8496094,8.19482422 C49.7128899,7.75048606 49.5123711,7.37451326 49.2480469,7.06689453 C48.9837226,6.75927581 48.6601582,6.52571694 48.2773438,6.36621094 C47.8945293,6.20670493 47.4570337,6.12695312 46.9648438,6.12695312 L45.4677734,6.12695312 Z M59.4619141,10.3994141 L55.1484375,10.3994141 L55.1484375,13.9267578 L60.1591797,13.9267578 L60.1591797,15 L53.8359375,15 L53.8359375,5.046875 L60.0908203,5.046875 L60.0908203,6.12695312 L55.1484375,6.12695312 L55.1484375,9.32617188 L59.4619141,9.32617188 L59.4619141,10.3994141 Z M67.5976562,12.484375 C67.5976562,12.251952 67.5623376,12.0468759 67.4916992,11.8691406 C67.4210608,11.6914054 67.2957366,11.5284838 67.1157227,11.3803711 C66.9357087,11.2322584 66.6930354,11.0932624 66.3876953,10.9633789 C66.0823552,10.8334954 65.6949893,10.700196 65.2255859,10.5634766 C64.733396,10.4221998 64.2879252,10.2615569 63.8891602,10.081543 C63.4903951,9.90152905 63.1508803,9.69417435 62.8706055,9.45947266 C62.5903306,9.22477096 62.3750008,8.95703275 62.2246094,8.65625 C62.074218,8.35546725 61.9990234,8.01139517 61.9990234,7.62402344 C61.9990234,7.23665171 62.0799146,6.87776858 62.2416992,6.54736328 C62.4034839,6.21695798 62.6324855,5.92985148 62.9287109,5.68603516 C63.2249364,5.44221883 63.5804016,5.25195381 63.9951172,5.11523438 C64.4098328,4.97851494 64.8723933,4.91015625 65.3828125,4.91015625 C65.9433622,4.91015625 66.4423806,4.9944653 66.8798828,5.16308594 C67.317385,5.33170657 67.6853826,5.55501163 67.9838867,5.83300781 C68.2823908,6.11100399 68.5091138,6.43228984 68.6640625,6.796875 C68.8190112,7.16146016 68.8964844,7.53743296 68.8964844,7.92480469 L67.5771484,7.92480469 C67.5771484,7.64680851 67.5327153,7.3893241 67.4438477,7.15234375 C67.35498,6.9153634 67.219402,6.71028732 67.0371094,6.53710938 C66.8548168,6.36393143 66.6269545,6.22949267 66.3535156,6.13378906 C66.0800768,6.03808546 65.7565123,5.99023438 65.3828125,5.99023438 C65.0318993,5.99023438 64.7265638,6.03124959 64.4667969,6.11328125 C64.20703,6.19531291 63.9928394,6.30810475 63.8242188,6.45166016 C63.6555981,6.59521556 63.5302738,6.76497298 63.4482422,6.9609375 C63.3662105,7.15690202 63.3251953,7.37109259 63.3251953,7.60351562 C63.3251953,7.81315209 63.3696285,8.00455643 63.4584961,8.17773438 C63.5473637,8.35091232 63.6852204,8.51041594 63.8720703,8.65625 C64.0589202,8.80208406 64.2993149,8.93652282 64.5932617,9.05957031 C64.8872085,9.1826178 65.2392558,9.3011062 65.6494141,9.41503906 C66.2145211,9.57454507 66.7021464,9.75113835 67.1123047,9.94482422 C67.522463,10.1385101 67.8608385,10.3583972 68.1274414,10.6044922 C68.3940443,10.8505872 68.5922845,11.1263006 68.722168,11.4316406 C68.8520514,11.7369807 68.9169922,12.0833314 68.9169922,12.4707031 C68.9169922,12.8763041 68.8349618,13.2431624 68.6708984,13.5712891 C68.5068351,13.8994157 68.2732763,14.1796863 67.9702148,14.4121094 C67.6671534,14.6445324 67.3025737,14.8234043 66.8764648,14.9487305 C66.4503559,15.0740566 65.975263,15.1367188 65.4511719,15.1367188 C65.1458318,15.1367188 64.8404963,15.108236 64.5351562,15.0512695 C64.2298162,14.9943031 63.9370131,14.9088547 63.6567383,14.7949219 C63.3764634,14.680989 63.1167004,14.5397144 62.8774414,14.3710938 C62.6381824,14.2024731 62.4296884,14.0065115 62.2519531,13.7832031 C62.0742179,13.5598947 61.9352219,13.3092462 61.8349609,13.03125 C61.7347,12.7532538 61.6845703,12.4479183 61.6845703,12.1152344 L63.0039062,12.1152344 C63.0039062,12.457033 63.0711256,12.749836 63.2055664,12.9936523 C63.3400072,13.2374687 63.5200184,13.4391268 63.7456055,13.5986328 C63.9711925,13.7581388 64.2309556,13.8754879 64.5249023,13.9506836 C64.8188491,14.0258793 65.1276025,14.0634766 65.4511719,14.0634766 C66.1438837,14.0634766 66.6748028,13.9222019 67.0439453,13.6396484 C67.4130878,13.3570949 67.5976562,12.9720076 67.5976562,12.484375 Z M72.5068359,15 L71.1943359,15 L71.1943359,5.046875 L72.5068359,5.046875 L72.5068359,15 Z M82.7548828,13.6943359 C82.6591792,13.8310554 82.5270191,13.9825838 82.3583984,14.1489258 C82.1897778,14.3152678 81.9676121,14.4713534 81.6918945,14.6171875 C81.416177,14.7630216 81.0778015,14.8860672 80.6767578,14.9863281 C80.2757141,15.086589 79.7949247,15.1367188 79.234375,15.1367188 C78.6282522,15.1367188 78.0711288,15.0296235 77.5629883,14.8154297 C77.0548477,14.6012359 76.6173521,14.2924825 76.2504883,13.8891602 C75.8836245,13.4858378 75.5976573,12.9913766 75.3925781,12.4057617 C75.187499,11.8201468 75.0849609,11.1559282 75.0849609,10.4130859 L75.0849609,9.63378906 C75.0849609,8.89094681 75.1726879,8.2278675 75.3481445,7.64453125 C75.5236011,7.061195 75.7810855,6.5667338 76.1206055,6.16113281 C76.4601254,5.75553183 76.8782527,5.44563909 77.375,5.23144531 C77.8717473,5.01725153 78.441403,4.91015625 79.0839844,4.91015625 C79.6536487,4.91015625 80.1526671,4.98649012 80.5810547,5.13916016 C81.0094422,5.29183019 81.3740219,5.50374213 81.6748047,5.77490234 C81.9755874,6.04606255 82.2148429,6.36848771 82.3925781,6.7421875 C82.5703134,7.11588729 82.6910804,7.52376081 82.7548828,7.96582031 L81.4423828,7.96582031 C81.3922524,7.69693876 81.3136399,7.44287229 81.206543,7.20361328 C81.0994461,6.96435427 80.9524749,6.75472095 80.765625,6.57470703 C80.5787751,6.39469311 80.3486342,6.25227917 80.0751953,6.14746094 C79.8017564,6.04264271 79.4736347,5.99023438 79.0908203,5.99023438 C78.6259742,5.99023438 78.2249366,6.07454343 77.8876953,6.24316406 C77.550454,6.4117847 77.272462,6.65331874 77.0537109,6.96777344 C76.8349598,7.28222813 76.6720383,7.66275818 76.5649414,8.109375 C76.4578445,8.55599182 76.4042969,9.05956751 76.4042969,9.62011719 L76.4042969,10.4130859 C76.4042969,10.9873076 76.4726556,11.4999977 76.609375,11.9511719 C76.7460944,12.402346 76.9386381,12.7851547 77.1870117,13.0996094 C77.4353854,13.4140641 77.733885,13.6533195 78.0825195,13.8173828 C78.4311541,13.9814461 78.8173807,14.0634766 79.2412109,14.0634766 C79.5966815,14.0634766 79.898599,14.039551 80.1469727,13.9916992 C80.3953463,13.9438474 80.6049796,13.8846032 80.7758789,13.8139648 C80.9467782,13.7433265 81.0846349,13.6658533 81.1894531,13.581543 C81.2942714,13.4972327 81.380859,13.4186202 81.4492188,13.3457031 L81.4492188,11.1103516 L79.1455078,11.1103516 L79.1455078,10.0439453 L82.7548828,10.0439453 L82.7548828,13.6943359 Z M93.0917969,15 L91.7724609,15 L86.7617188,7.33007812 L86.7617188,15 L85.4423828,15 L85.4423828,5.046875 L86.7617188,5.046875 L91.7861328,12.7509766 L91.7861328,5.046875 L93.0917969,5.046875 L93.0917969,15 Z M101.548828,10.3994141 L97.2353516,10.3994141 L97.2353516,13.9267578 L102.246094,13.9267578 L102.246094,15 L95.9228516,15 L95.9228516,5.046875 L102.177734,5.046875 L102.177734,6.12695312 L97.2353516,6.12695312 L97.2353516,9.32617188 L101.548828,9.32617188 L101.548828,10.3994141 Z M108.030273,10.9736328 L105.692383,10.9736328 L105.692383,15 L104.373047,15 L104.373047,5.046875 L107.667969,5.046875 C108.789068,5.046875 109.651527,5.30208078 110.255371,5.8125 C110.859215,6.32291922 111.161133,7.06575033 111.161133,8.04101562 C111.161133,8.66081039 110.993654,9.20084405 110.658691,9.66113281 C110.323729,10.1214216 109.85775,10.4654937 109.260742,10.6933594 L111.598633,14.9179688 L111.598633,15 L110.19043,15 L108.030273,10.9736328 Z M105.692383,9.90039062 L107.708984,9.90039062 C108.064455,9.90039062 108.375487,9.85140023 108.64209,9.75341797 C108.908693,9.65543571 109.130858,9.52327557 109.308594,9.35693359 C109.486329,9.19059162 109.619628,8.99463003 109.708496,8.76904297 C109.797364,8.5434559 109.841797,8.30078255 109.841797,8.04101562 C109.841797,7.75390481 109.799642,7.49300248 109.715332,7.25830078 C109.631022,7.02359909 109.500001,6.82194095 109.322266,6.65332031 C109.14453,6.48469968 108.918947,6.35481816 108.645508,6.26367188 C108.372069,6.17252559 108.046226,6.12695312 107.667969,6.12695312 L105.692383,6.12695312 L105.692383,9.90039062 Z" id="Designer"></path>
                    <g id="icons/system" fill-rule="nonzero">
                        <path d="M26.2998457,2.39805164 L9.6594082,2.39805164 L9.6594082,1.75369953 C9.6594082,0.808629108 8.87429883,0.0397652582 7.90925977,0.0397652582 L5.19343945,0.0397652582 C4.22840039,0.0397652582 3.44329102,0.808629108 3.44329102,1.75369953 L3.44329102,2.39805164 L0.700048828,2.39805164 C0.313400391,2.39805164 0,2.70507042 0,3.08366667 C0,3.46226291 0.313400391,3.76923005 0.700048828,3.76923005 L3.44318555,3.76923005 L3.44318555,4.41337559 C3.44318555,5.35844601 4.22829492,6.12730986 5.19333398,6.12730986 L7.90920703,6.12730986 C8.87424609,6.12730986 9.65935547,5.35844601 9.65935547,4.41337559 L9.65935547,3.76923005 L26.2998457,3.76923005 C26.6864941,3.76923005 26.9998945,3.46221127 26.9998945,3.08366667 C26.9999473,2.70507042 26.6864941,2.39805164 26.2998457,2.39805164 Z M8.25931055,4.41337559 C8.25931055,4.60238967 8.10226758,4.7561831 7.90925977,4.7561831 L5.19338672,4.7561831 C5.00037891,4.7561831 4.84333594,4.60238967 4.84333594,4.41337559 L4.84333594,1.75369953 C4.84333594,1.56468545 5.00037891,1.41089202 5.19338672,1.41089202 L7.90925977,1.41089202 C8.10226758,1.41089202 8.25931055,1.56468545 8.25931055,1.75369953 L8.25931055,4.41337559 Z" id="Shape"></path>
                        <path d="M26.2999512,10.0340141 L23.5567617,10.0340141 L23.5567617,9.3894554 C23.5567617,8.44438498 22.7716523,7.67552113 21.8066133,7.67552113 L19.0907402,7.67552113 C18.1257012,7.67552113 17.3405918,8.44438498 17.3405918,9.3894554 L17.3405918,10.0340141 L0.700048828,10.0340141 C0.313400391,10.0340141 0,10.3409812 0,10.7195775 C0,11.0981737 0.313400391,11.4051408 0.700048828,11.4051408 L17.3405391,11.4051408 L17.3405391,12.0490798 C17.3405391,12.9941502 18.1256484,13.7630141 19.0906875,13.7630141 L21.8065605,13.7630141 C22.7715996,13.7630141 23.556709,12.9941502 23.556709,12.0490798 L23.556709,11.4051408 L26.2998984,11.4051408 C26.6865469,11.4051408 26.9999473,11.0981221 26.9999473,10.7195775 C27,10.3409812 26.6865996,10.0340141 26.2999512,10.0340141 Z M22.1566113,12.0491315 C22.1566113,12.2381455 21.9995684,12.391939 21.8065605,12.391939 L19.0906875,12.391939 C18.8976797,12.391939 18.7406367,12.2381455 18.7406367,12.0491315 L18.7406367,9.3894554 C18.7406367,9.20044131 18.8976797,9.04664789 19.0906875,9.04664789 L21.8065605,9.04664789 C21.9995684,9.04664789 22.1566113,9.20044131 22.1566113,9.3894554 L22.1566113,12.0491315 Z" id="Shape"></path>
                        <path d="M26.2999512,18.23077 L14.5774687,18.23077 L14.5774687,17.5866244 C14.5774687,16.641554 13.7923594,15.8726901 12.8273203,15.8726901 L10.1114473,15.8726901 C9.1464082,15.8726901 8.36129883,16.641554 8.36129883,17.5866244 L8.36129883,18.23077 L0.700048828,18.23077 C0.313400391,18.23077 0,18.5377887 0,18.9163333 C0,19.2949296 0.313400391,19.6018967 0.700048828,19.6018967 L8.36124609,19.6018967 L8.36124609,20.2462488 C8.36124609,21.1913192 9.14635547,21.9601831 10.1113945,21.9601831 L12.8272676,21.9601831 C13.7923066,21.9601831 14.577416,21.1913192 14.577416,20.2462488 L14.577416,19.6018967 L26.2998984,19.6018967 C26.6865469,19.6018967 26.9999473,19.2948779 26.9999473,18.9163333 C27,18.5376854 26.6865996,18.23077 26.2999512,18.23077 Z M13.1773184,20.2463005 C13.1773184,20.4353146 13.0202754,20.589108 12.8272676,20.589108 L10.1113945,20.589108 C9.91838672,20.589108 9.76134375,20.4353146 9.76134375,20.2463005 L9.76134375,17.5866244 C9.76134375,17.3976103 9.91838672,17.2438169 10.1113945,17.2438169 L12.8272676,17.2438169 C13.0202754,17.2438169 13.1773184,17.3976103 13.1773184,17.5866244 L13.1773184,20.2463005 Z" id="Shape"></path>
                    </g>
                </g>
            </g>
        </g>
    </g>
</svg>