<?xml version="1.0" encoding="UTF-8"?>
<svg width="128px" height="19px" viewBox="0 0 128 19" version="1.1" xmlns="http://www.w3.org/2000/svg" xmlns:xlink="http://www.w3.org/1999/xlink">
    <!-- Generator: Sketch 43.2 (39069) - http://www.bohemiancoding.com/sketch -->
    <title>dashboard</title>
    <desc>Created with Sketch.</desc>
    <defs></defs>
    <g id="Page-1" stroke="none" stroke-width="1" fill="none" fill-rule="evenodd">
        <g id="model-optimizer" transform="translate(-20.000000, -135.000000)" fill="#FFFFFF">
            <g id="left-sidebar">
                <g id="dashboard" transform="translate(20.000000, 135.000000)">
                    <path d="M44.1552734,15 L44.1552734,5.046875 L46.9648438,5.046875 C47.621097,5.046875 48.2180963,5.15624891 48.7558594,5.375 C49.2936225,5.59375109 49.7550436,5.90592245 50.1401367,6.31152344 C50.5252298,6.71712442 50.8237294,7.209307 51.0356445,7.78808594 C51.2475597,8.36686487 51.3535156,9.01627244 51.3535156,9.73632812 L51.3535156,10.3242188 C51.3535156,11.0442744 51.2475597,11.693682 51.0356445,12.2724609 C50.8237294,12.8512399 50.5229512,13.3422831 50.1333008,13.7456055 C49.7436504,14.1489278 49.2708361,14.4588205 48.7148438,14.675293 C48.1588514,14.8917654 47.5367873,15 46.8486328,15 L44.1552734,15 Z M45.4677734,6.12695312 L45.4677734,13.9267578 L46.8486328,13.9267578 C47.3772813,13.9267578 47.8421204,13.8413094 48.2431641,13.6704102 C48.6442077,13.4995109 48.9791653,13.2568375 49.2480469,12.9423828 C49.5169284,12.6279281 49.7185866,12.2496767 49.8530273,11.8076172 C49.9874681,11.3655577 50.0546875,10.8710965 50.0546875,10.3242188 L50.0546875,9.71582031 C50.0546875,9.14615601 49.9863288,8.63916238 49.8496094,8.19482422 C49.7128899,7.75048606 49.5123711,7.37451326 49.2480469,7.06689453 C48.9837226,6.75927581 48.6601582,6.52571694 48.2773438,6.36621094 C47.8945293,6.20670493 47.4570337,6.12695312 46.9648438,6.12695312 L45.4677734,6.12695312 Z M59.1884766,12.4023438 L55.0185547,12.4023438 L54.0820312,15 L52.7285156,15 L56.5292969,5.046875 L57.6777344,5.046875 L61.4853516,15 L60.1386719,15 L59.1884766,12.4023438 Z M55.4150391,11.3222656 L58.7988281,11.3222656 L57.1035156,6.66699219 L55.4150391,11.3222656 Z M68.6298828,12.484375 C68.6298828,12.251952 68.5945642,12.0468759 68.5239258,11.8691406 C68.4532874,11.6914054 68.3279631,11.5284838 68.1479492,11.3803711 C67.9679353,11.2322584 67.7252619,11.0932624 67.4199219,10.9633789 C67.1145818,10.8334954 66.7272159,10.700196 66.2578125,10.5634766 C65.7656225,10.4221998 65.3201517,10.2615569 64.9213867,10.081543 C64.5226217,9.90152905 64.1831069,9.69417435 63.902832,9.45947266 C63.6225572,9.22477096 63.4072273,8.95703275 63.2568359,8.65625 C63.1064446,8.35546725 63.03125,8.01139517 63.03125,7.62402344 C63.03125,7.23665171 63.1121411,6.87776858 63.2739258,6.54736328 C63.4357104,6.21695798 63.6647121,5.92985148 63.9609375,5.68603516 C64.2571629,5.44221883 64.6126281,5.25195381 65.0273438,5.11523438 C65.4420594,4.97851494 65.9046198,4.91015625 66.4150391,4.91015625 C66.9755887,4.91015625 67.4746072,4.9944653 67.9121094,5.16308594 C68.3496116,5.33170657 68.7176092,5.55501163 69.0161133,5.83300781 C69.3146174,6.11100399 69.5413404,6.43228984 69.6962891,6.796875 C69.8512378,7.16146016 69.9287109,7.53743296 69.9287109,7.92480469 L68.609375,7.92480469 C68.609375,7.64680851 68.5649419,7.3893241 68.4760742,7.15234375 C68.3872066,6.9153634 68.2516285,6.71028732 68.0693359,6.53710938 C67.8870434,6.36393143 67.6591811,6.22949267 67.3857422,6.13378906 C67.1123033,6.03808546 66.7887388,5.99023438 66.4150391,5.99023438 C66.0641258,5.99023438 65.7587904,6.03124959 65.4990234,6.11328125 C65.2392565,6.19531291 65.0250659,6.30810475 64.8564453,6.45166016 C64.6878247,6.59521556 64.5625004,6.76497298 64.4804688,6.9609375 C64.3984371,7.15690202 64.3574219,7.37109259 64.3574219,7.60351562 C64.3574219,7.81315209 64.401855,8.00455643 64.4907227,8.17773438 C64.5795903,8.35091232 64.717447,8.51041594 64.9042969,8.65625 C65.0911468,8.80208406 65.3315415,8.93652282 65.6254883,9.05957031 C65.9194351,9.1826178 66.2714823,9.3011062 66.6816406,9.41503906 C67.2467476,9.57454507 67.7343729,9.75113835 68.1445312,9.94482422 C68.5546896,10.1385101 68.8930651,10.3583972 69.159668,10.6044922 C69.4262709,10.8505872 69.6245111,11.1263006 69.7543945,11.4316406 C69.884278,11.7369807 69.9492188,12.0833314 69.9492188,12.4707031 C69.9492188,12.8763041 69.8671883,13.2431624 69.703125,13.5712891 C69.5390617,13.8994157 69.3055028,14.1796863 69.0024414,14.4121094 C68.69938,14.6445324 68.3348003,14.8234043 67.9086914,14.9487305 C67.4825825,15.0740566 67.0074896,15.1367188 66.4833984,15.1367188 C66.1780584,15.1367188 65.8727229,15.108236 65.5673828,15.0512695 C65.2620427,14.9943031 64.9692397,14.9088547 64.6889648,14.7949219 C64.40869,14.680989 64.148927,14.5397144 63.909668,14.3710938 C63.670409,14.2024731 63.461915,14.0065115 63.2841797,13.7832031 C63.1064444,13.5598947 62.9674484,13.3092462 62.8671875,13.03125 C62.7669266,12.7532538 62.7167969,12.4479183 62.7167969,12.1152344 L64.0361328,12.1152344 C64.0361328,12.457033 64.1033522,12.749836 64.237793,12.9936523 C64.3722337,13.2374687 64.552245,13.4391268 64.777832,13.5986328 C65.0034191,13.7581388 65.2631821,13.8754879 65.5571289,13.9506836 C65.8510757,14.0258793 66.1598291,14.0634766 66.4833984,14.0634766 C67.1761102,14.0634766 67.7070294,13.9222019 68.0761719,13.6396484 C68.4453143,13.3570949 68.6298828,12.9720076 68.6298828,12.484375 Z M79.7802734,15 L78.4609375,15 L78.4609375,10.3994141 L73.4433594,10.3994141 L73.4433594,15 L72.1308594,15 L72.1308594,5.046875 L73.4433594,5.046875 L73.4433594,9.32617188 L78.4609375,9.32617188 L78.4609375,5.046875 L79.7802734,5.046875 L79.7802734,15 Z M82.6113281,15 L82.6113281,5.046875 L85.8652344,5.046875 C86.3756536,5.046875 86.8313782,5.09814402 87.2324219,5.20068359 C87.6334655,5.30322317 87.9741197,5.46272678 88.2543945,5.67919922 C88.5346694,5.89567166 88.7488599,6.17024573 88.8969727,6.50292969 C89.0450854,6.83561364 89.1191406,7.23437268 89.1191406,7.69921875 C89.1191406,8.16406482 88.9869805,8.57535628 88.7226562,8.93310547 C88.458332,9.29085465 88.0983096,9.56770735 87.6425781,9.76367188 C87.9205743,9.84114622 88.1678049,9.95507737 88.3842773,10.1054688 C88.6007498,10.2558601 88.7830396,10.4335927 88.9311523,10.6386719 C89.0792651,10.843751 89.1920569,11.073892 89.2695312,11.3291016 C89.3470056,11.5843112 89.3857422,11.8509101 89.3857422,12.1289062 C89.3857422,12.5937523 89.3071297,13.0050438 89.1499023,13.362793 C88.992675,13.7205422 88.7705092,14.0213204 88.4833984,14.2651367 C88.1962876,14.508953 87.8499369,14.6923822 87.4443359,14.8154297 C87.038735,14.9384772 86.5875676,15 86.0908203,15 L82.6113281,15 Z M83.9238281,10.3447266 L83.9238281,13.9267578 L86.0908203,13.9267578 C86.405275,13.9267578 86.6844063,13.8846033 86.9282227,13.800293 C87.172039,13.7159827 87.3782544,13.5974943 87.546875,13.4448242 C87.7154956,13.2921542 87.8442378,13.1053071 87.9331055,12.8842773 C88.0219731,12.6632476 88.0664062,12.416017 88.0664062,12.1425781 C88.0664062,11.8691393 88.0299483,11.6207693 87.9570312,11.3974609 C87.8841142,11.1741525 87.7690438,10.9850268 87.6118164,10.8300781 C87.4545891,10.6751294 87.2552095,10.5555017 87.0136719,10.4711914 C86.7721342,10.3868811 86.4850277,10.3447266 86.1523438,10.3447266 L83.9238281,10.3447266 Z M83.9238281,9.29199219 L85.90625,9.29199219 C86.1888035,9.29199219 86.4462879,9.25553422 86.6787109,9.18261719 C86.911134,9.10970016 87.1105135,9.0048835 87.2768555,8.86816406 C87.4431974,8.73144463 87.5719396,8.56396583 87.6630859,8.36572266 C87.7542322,8.16747948 87.7998047,7.94303511 87.7998047,7.69238281 C87.7998047,7.14550508 87.6403011,6.74788536 87.3212891,6.49951172 C87.0022771,6.25113808 86.5169303,6.12695312 85.8652344,6.12695312 L83.9238281,6.12695312 L83.9238281,9.29199219 Z M99.4833984,10.3447266 C99.4833984,11.0921261 99.3888356,11.760902 99.199707,12.3510742 C99.0105785,12.9412464 98.7428403,13.4436828 98.3964844,13.8583984 C98.0501285,14.2731141 97.6308618,14.5898427 97.1386719,14.8085938 C96.6464819,15.0273448 96.0973338,15.1367188 95.4912109,15.1367188 C94.9033174,15.1367188 94.3632837,15.0273448 93.8710938,14.8085938 C93.3789038,14.5898427 92.9550799,14.2731141 92.5996094,13.8583984 C92.2441388,13.4436828 91.9684255,12.9412464 91.7724609,12.3510742 C91.5764964,11.760902 91.4785156,11.0921261 91.4785156,10.3447266 L91.4785156,9.71582031 C91.4785156,8.97297806 91.5764964,8.30420219 91.7724609,7.70947266 C91.9684255,7.11474312 92.2418602,6.61002812 92.5927734,6.1953125 C92.9436867,5.78059688 93.3652319,5.46272897 93.8574219,5.24169922 C94.3496118,5.02066947 94.8896455,4.91015625 95.4775391,4.91015625 C96.0836619,4.91015625 96.6339494,5.02066947 97.128418,5.24169922 C97.6228866,5.46272897 98.0444319,5.78059688 98.3930664,6.1953125 C98.741701,6.61002812 99.0105785,7.11474312 99.199707,7.70947266 C99.3888356,8.30420219 99.4833984,8.97297806 99.4833984,9.71582031 L99.4833984,10.3447266 Z M98.1777344,9.70214844 C98.1777344,9.10969756 98.1173509,8.58561426 97.996582,8.12988281 C97.8758132,7.67415137 97.6992199,7.2913427 97.4667969,6.98144531 C97.2343738,6.67154793 96.9506853,6.43684976 96.6157227,6.27734375 C96.28076,6.11783774 95.9013693,6.03808594 95.4775391,6.03808594 C95.0719381,6.03808594 94.7028011,6.11783774 94.3701172,6.27734375 C94.0374332,6.43684976 93.7537447,6.67154793 93.519043,6.98144531 C93.2843413,7.2913427 93.1031907,7.67415137 92.9755859,8.12988281 C92.8479811,8.58561426 92.7841797,9.10969756 92.7841797,9.70214844 L92.7841797,10.3447266 C92.7841797,10.9417348 92.8491204,11.4680967 92.9790039,11.9238281 C93.1088874,12.3795596 93.2923165,12.7635076 93.5292969,13.0756836 C93.7662772,13.3878596 94.0511051,13.6236971 94.3837891,13.7832031 C94.716473,13.9427091 95.08561,14.0224609 95.4912109,14.0224609 C95.9195985,14.0224609 96.3001285,13.9427091 96.6328125,13.7832031 C96.9654965,13.6236971 97.2469064,13.3878596 97.4770508,13.0756836 C97.7071952,12.7635076 97.8815098,12.3795596 98,11.9238281 C98.1184902,11.4680967 98.1777344,10.9417348 98.1777344,10.3447266 L98.1777344,9.70214844 Z M107.304688,12.4023438 L103.134766,12.4023438 L102.198242,15 L100.844727,15 L104.645508,5.046875 L105.793945,5.046875 L109.601562,15 L108.254883,15 L107.304688,12.4023438 Z M103.53125,11.3222656 L106.915039,11.3222656 L105.219727,6.66699219 L103.53125,11.3222656 Z M115.091797,10.9736328 L112.753906,10.9736328 L112.753906,15 L111.43457,15 L111.43457,5.046875 L114.729492,5.046875 C115.850592,5.046875 116.71305,5.30208078 117.316895,5.8125 C117.920739,6.32291922 118.222656,7.06575033 118.222656,8.04101562 C118.222656,8.66081039 118.055177,9.20084405 117.720215,9.66113281 C117.385252,10.1214216 116.919274,10.4654937 116.322266,10.6933594 L118.660156,14.9179688 L118.660156,15 L117.251953,15 L115.091797,10.9736328 Z M112.753906,9.90039062 L114.770508,9.90039062 C115.125978,9.90039062 115.43701,9.85140023 115.703613,9.75341797 C115.970216,9.65543571 116.192382,9.52327557 116.370117,9.35693359 C116.547852,9.19059162 116.681152,8.99463003 116.77002,8.76904297 C116.858887,8.5434559 116.90332,8.30078255 116.90332,8.04101562 C116.90332,7.75390481 116.861166,7.49300248 116.776855,7.25830078 C116.692545,7.02359909 116.561524,6.82194095 116.383789,6.65332031 C116.206054,6.48469968 115.98047,6.35481816 115.707031,6.26367188 C115.433592,6.17252559 115.107749,6.12695312 114.729492,6.12695312 L112.753906,6.12695312 L112.753906,9.90039062 Z M120.561523,15 L120.561523,5.046875 L123.371094,5.046875 C124.027347,5.046875 124.624346,5.15624891 125.162109,5.375 C125.699872,5.59375109 126.161294,5.90592245 126.546387,6.31152344 C126.93148,6.71712442 127.229979,7.209307 127.441895,7.78808594 C127.65381,8.36686487 127.759766,9.01627244 127.759766,9.73632812 L127.759766,10.3242188 C127.759766,11.0442744 127.65381,11.693682 127.441895,12.2724609 C127.229979,12.8512399 126.929201,13.3422831 126.539551,13.7456055 C126.1499,14.1489278 125.677086,14.4588205 125.121094,14.675293 C124.565101,14.8917654 123.943037,15 123.254883,15 L120.561523,15 Z M121.874023,6.12695312 L121.874023,13.9267578 L123.254883,13.9267578 C123.783531,13.9267578 124.24837,13.8413094 124.649414,13.6704102 C125.050458,13.4995109 125.385415,13.2568375 125.654297,12.9423828 C125.923178,12.6279281 126.124837,12.2496767 126.259277,11.8076172 C126.393718,11.3655577 126.460938,10.8710965 126.460938,10.3242188 L126.460938,9.71582031 C126.460938,9.14615601 126.392579,8.63916238 126.255859,8.19482422 C126.11914,7.75048606 125.918621,7.37451326 125.654297,7.06689453 C125.389973,6.75927581 125.066408,6.52571694 124.683594,6.36621094 C124.300779,6.20670493 123.863284,6.12695312 123.371094,6.12695312 L121.874023,6.12695312 Z" id="Dashboard"></path>
                    <g id="icons/dashboard" fill-rule="nonzero">
                        <path d="M25.7903262,0.233258929 L14.1048105,0.233258929 L12.8951895,0.233258929 L1.20967383,0.233258929 C0.542636719,0.233258929 0,0.778766741 0,1.44933315 L0,2.5776702 C0,3.24818359 0.542636719,3.79374442 1.20967383,3.79374442 L1.37404688,3.79374442 L1.37404688,17.460332 C1.37404688,18.1308454 1.91668359,18.6764062 2.5837207,18.6764062 L12.8951895,18.6764062 L14.1048105,18.6764593 L24.4162793,18.6764593 C25.0832637,18.6764593 25.6259531,18.1309515 25.6259531,17.460385 L25.6259531,3.79369141 L25.7903262,3.79369141 C26.4573105,3.79369141 27,3.24818359 27,2.57761719 L27,1.44933315 C27,0.778766741 26.4573633,0.233258929 25.7903262,0.233258929 Z M24.4162793,17.460226 L2.5837207,17.460226 L2.5837207,3.79369141 L24.416332,3.79369141 L24.416332,17.460226 L24.4162793,17.460226 Z M25.7903262,2.57761719 L1.20967383,2.57761719 L1.20967383,1.44933315 L25.7903789,1.44933315 L25.7903789,2.57761719 L25.7903262,2.57761719 Z" id="Shape"></path>
                        <path d="M13.4885039,5.55442522 C13.1878652,5.55442522 12.9441797,5.79940011 12.9441797,6.10162946 L12.9441797,10.2980106 L8.76988477,10.2980106 C8.46924609,10.2980106 8.22556055,10.5429855 8.22556055,10.8452148 C8.22556055,13.7625949 10.5865312,16.1360045 13.4885566,16.1360045 C16.390582,16.1360045 18.7516055,13.7625419 18.7516055,10.8452148 C18.7516055,7.92788783 16.3905293,5.55442522 13.4885039,5.55442522 Z M13.4885039,15.041596 C11.3712187,15.041596 9.61711523,13.4487556 9.34954102,11.3924721 L13.4885039,11.3924721 C13.7891426,11.3924721 14.0328281,11.1474972 14.0328281,10.8452679 L14.0328281,6.68440569 C16.0782891,6.95339565 17.6627988,8.71678013 17.6627988,10.8452679 C17.6628516,13.1591434 15.7902539,15.041596 13.4885039,15.041596 Z" id="Shape"></path>
                        <path d="M11.646123,4.9882952 C9.44963086,4.9882952 7.66262109,6.7849721 7.66262109,8.993351 C7.66262109,9.29558036 7.90630664,9.54055525 8.20694531,9.54055525 L11.646123,9.54055525 C11.9467617,9.54055525 12.1904473,9.29558036 12.1904473,8.993351 L12.1904473,5.53549944 C12.1905,5.23327009 11.9468145,4.9882952 11.646123,4.9882952 Z M11.1017988,8.44614676 L8.80263281,8.44614676 C9.02427539,7.27916295 9.94116797,6.35726004 11.1017988,6.13439174 L11.1017988,8.44614676 Z" id="Shape"></path>
                    </g>
                </g>
            </g>
        </g>
    </g>
</svg>