<?xml version="1.0" encoding="UTF-8"?>
<svg width="162px" height="25px" viewBox="0 0 162 25" version="1.1" xmlns="http://www.w3.org/2000/svg" xmlns:xlink="http://www.w3.org/1999/xlink">
    <!-- Generator: Sketch 43.2 (39069) - http://www.bohemiancoding.com/sketch -->
    <title>model</title>
    <desc>Created with Sketch.</desc>
    <defs></defs>
    <g id="Page-1" stroke="none" stroke-width="1" fill="none" fill-rule="evenodd">
        <g id="model-optimizer" transform="translate(-20.000000, -297.000000)" fill="#FFFFFF">
            <g id="left-sidebar">
                <g id="model" transform="translate(20.000000, 297.750000)">
                    <path d="M45.8505859,7.046875 L49.1044922,15.1679688 L52.3583984,7.046875 L54.0605469,7.046875 L54.0605469,17 L52.7480469,17 L52.7480469,13.1240234 L52.8710938,8.94042969 L49.6035156,17 L48.5986328,17 L45.3378906,8.9609375 L45.4677734,13.1240234 L45.4677734,17 L44.1552734,17 L44.1552734,7.046875 L45.8505859,7.046875 Z M64.5341797,12.3447266 C64.5341797,13.0921261 64.4396168,13.760902 64.2504883,14.3510742 C64.0613597,14.9412464 63.7936215,15.4436828 63.4472656,15.8583984 C63.1009097,16.2731141 62.6816431,16.5898427 62.1894531,16.8085938 C61.6972632,17.0273448 61.148115,17.1367188 60.5419922,17.1367188 C59.9540986,17.1367188 59.414065,17.0273448 58.921875,16.8085938 C58.429685,16.5898427 58.0058612,16.2731141 57.6503906,15.8583984 C57.2949201,15.4436828 57.0192067,14.9412464 56.8232422,14.3510742 C56.6272777,13.760902 56.5292969,13.0921261 56.5292969,12.3447266 L56.5292969,11.7158203 C56.5292969,10.9729781 56.6272777,10.3042022 56.8232422,9.70947266 C57.0192067,9.11474312 57.2926415,8.61002812 57.6435547,8.1953125 C57.9944679,7.78059688 58.4160132,7.46272897 58.9082031,7.24169922 C59.4003931,7.02066947 59.9404267,6.91015625 60.5283203,6.91015625 C61.1344431,6.91015625 61.6847306,7.02066947 62.1791992,7.24169922 C62.6736678,7.46272897 63.0952131,7.78059688 63.4438477,8.1953125 C63.7924822,8.61002812 64.0613597,9.11474312 64.2504883,9.70947266 C64.4396168,10.3042022 64.5341797,10.9729781 64.5341797,11.7158203 L64.5341797,12.3447266 Z M63.2285156,11.7021484 C63.2285156,11.1096976 63.1681321,10.5856143 63.0473633,10.1298828 C62.9265944,9.67415137 62.7500012,9.2913427 62.5175781,8.98144531 C62.2851551,8.67154793 62.0014665,8.43684976 61.6665039,8.27734375 C61.3315413,8.11783774 60.9521506,8.03808594 60.5283203,8.03808594 C60.1227193,8.03808594 59.7535824,8.11783774 59.4208984,8.27734375 C59.0882145,8.43684976 58.8045259,8.67154793 58.5698242,8.98144531 C58.3351225,9.2913427 58.153972,9.67415137 58.0263672,10.1298828 C57.8987624,10.5856143 57.8349609,11.1096976 57.8349609,11.7021484 L57.8349609,12.3447266 C57.8349609,12.9417348 57.8999017,13.4680967 58.0297852,13.9238281 C58.1596686,14.3795596 58.3430978,14.7635076 58.5800781,15.0756836 C58.8170585,15.3878596 59.1018864,15.6236971 59.4345703,15.7832031 C59.7672543,15.9427091 60.1363912,16.0224609 60.5419922,16.0224609 C60.9703797,16.0224609 61.3509098,15.9427091 61.6835938,15.7832031 C62.0162777,15.6236971 62.2976877,15.3878596 62.527832,15.0756836 C62.7579764,14.7635076 62.9322911,14.3795596 63.0507812,13.9238281 C63.1692714,13.4680967 63.2285156,12.9417348 63.2285156,12.3447266 L63.2285156,11.7021484 Z M67.0029297,17 L67.0029297,7.046875 L69.8125,7.046875 C70.4687533,7.046875 71.0657525,7.15624891 71.6035156,7.375 C72.1412787,7.59375109 72.6026999,7.90592245 72.987793,8.31152344 C73.372886,8.71712442 73.6713857,9.209307 73.8833008,9.78808594 C74.0952159,10.3668649 74.2011719,11.0162724 74.2011719,11.7363281 L74.2011719,12.3242188 C74.2011719,13.0442744 74.0952159,13.693682 73.8833008,14.2724609 C73.6713857,14.8512399 73.3706074,15.3422831 72.980957,15.7456055 C72.5913066,16.1489278 72.1184924,16.4588205 71.5625,16.675293 C71.0065076,16.8917654 70.3844435,17 69.6962891,17 L67.0029297,17 Z M68.3154297,8.12695312 L68.3154297,15.9267578 L69.6962891,15.9267578 C70.2249375,15.9267578 70.6897766,15.8413094 71.0908203,15.6704102 C71.491864,15.4995109 71.8268216,15.2568375 72.0957031,14.9423828 C72.3645847,14.6279281 72.5662428,14.2496767 72.7006836,13.8076172 C72.8351244,13.3655577 72.9023438,12.8710965 72.9023438,12.3242188 L72.9023438,11.7158203 C72.9023438,11.146156 72.8339851,10.6391624 72.6972656,10.1948242 C72.5605462,9.75048606 72.3600274,9.37451326 72.0957031,9.06689453 C71.8313789,8.75927581 71.5078144,8.52571694 71.125,8.36621094 C70.7421856,8.20670493 70.30469,8.12695312 69.8125,8.12695312 L68.3154297,8.12695312 Z M82.3095703,12.3994141 L77.9960938,12.3994141 L77.9960938,15.9267578 L83.0068359,15.9267578 L83.0068359,17 L76.6835938,17 L76.6835938,7.046875 L82.9384766,7.046875 L82.9384766,8.12695312 L77.9960938,8.12695312 L77.9960938,11.3261719 L82.3095703,11.3261719 L82.3095703,12.3994141 Z M86.4599609,15.9267578 L91.1767578,15.9267578 L91.1767578,17 L85.140625,17 L85.140625,7.046875 L86.4599609,7.046875 L86.4599609,15.9267578 Z M103.743164,8.12695312 L100.543945,8.12695312 L100.543945,17 L99.2382812,17 L99.2382812,8.12695312 L96.0458984,8.12695312 L96.0458984,7.046875 L103.743164,7.046875 L103.743164,8.12695312 Z M109.370117,12.9736328 L107.032227,12.9736328 L107.032227,17 L105.712891,17 L105.712891,7.046875 L109.007812,7.046875 C110.128912,7.046875 110.991371,7.30208078 111.595215,7.8125 C112.199059,8.32291922 112.500977,9.06575033 112.500977,10.0410156 C112.500977,10.6608104 112.333498,11.2008441 111.998535,11.6611328 C111.663573,12.1214216 111.197594,12.4654937 110.600586,12.6933594 L112.938477,16.9179688 L112.938477,17 L111.530273,17 L109.370117,12.9736328 Z M107.032227,11.9003906 L109.048828,11.9003906 C109.404299,11.9003906 109.715331,11.8514002 109.981934,11.753418 C110.248536,11.6554357 110.470702,11.5232756 110.648438,11.3569336 C110.826173,11.1905916 110.959472,10.99463 111.04834,10.769043 C111.137207,10.5434559 111.181641,10.3007825 111.181641,10.0410156 C111.181641,9.75390481 111.139486,9.49300248 111.055176,9.25830078 C110.970865,9.02359909 110.839845,8.82194095 110.662109,8.65332031 C110.484374,8.48469968 110.25879,8.35481816 109.985352,8.26367188 C109.711913,8.17252559 109.38607,8.12695312 109.007813,8.12695312 L107.032227,8.12695312 L107.032227,11.9003906 Z M120.335938,14.4023438 L116.166016,14.4023438 L115.229492,17 L113.875977,17 L117.676758,7.046875 L118.825195,7.046875 L122.632812,17 L121.286133,17 L120.335938,14.4023438 Z M116.5625,13.3222656 L119.946289,13.3222656 L118.250977,8.66699219 L116.5625,13.3222656 Z M125.880859,17 L124.568359,17 L124.568359,7.046875 L125.880859,7.046875 L125.880859,17 Z M136.429688,17 L135.110352,17 L130.099609,9.33007812 L130.099609,17 L128.780273,17 L128.780273,7.046875 L130.099609,7.046875 L135.124023,14.7509766 L135.124023,7.046875 L136.429688,7.046875 L136.429688,17 Z M140.668945,17 L139.356445,17 L139.356445,7.046875 L140.668945,7.046875 L140.668945,17 Z M151.217773,17 L149.898438,17 L144.887695,9.33007812 L144.887695,17 L143.568359,17 L143.568359,7.046875 L144.887695,7.046875 L149.912109,14.7509766 L149.912109,7.046875 L151.217773,7.046875 L151.217773,17 Z M161.397461,15.6943359 C161.301757,15.8310554 161.169597,15.9825838 161.000977,16.1489258 C160.832356,16.3152678 160.61019,16.4713534 160.334473,16.6171875 C160.058755,16.7630216 159.72038,16.8860672 159.319336,16.9863281 C158.918292,17.086589 158.437503,17.1367188 157.876953,17.1367188 C157.27083,17.1367188 156.713707,17.0296235 156.205566,16.8154297 C155.697426,16.6012359 155.25993,16.2924825 154.893066,15.8891602 C154.526203,15.4858378 154.240235,14.9913766 154.035156,14.4057617 C153.830077,13.8201468 153.727539,13.1559282 153.727539,12.4130859 L153.727539,11.6337891 C153.727539,10.8909468 153.815266,10.2278675 153.990723,9.64453125 C154.166179,9.061195 154.423664,8.5667338 154.763184,8.16113281 C155.102704,7.75553183 155.520831,7.44563909 156.017578,7.23144531 C156.514325,7.01725153 157.083981,6.91015625 157.726562,6.91015625 C158.296227,6.91015625 158.795245,6.98649012 159.223633,7.13916016 C159.65202,7.29183019 160.0166,7.50374213 160.317383,7.77490234 C160.618166,8.04606255 160.857421,8.36848771 161.035156,8.7421875 C161.212892,9.11588729 161.333659,9.52376081 161.397461,9.96582031 L160.084961,9.96582031 C160.03483,9.69693876 159.956218,9.44287229 159.849121,9.20361328 C159.742024,8.96435427 159.595053,8.75472095 159.408203,8.57470703 C159.221353,8.39469311 158.991212,8.25227917 158.717773,8.14746094 C158.444335,8.04264271 158.116213,7.99023438 157.733398,7.99023438 C157.268552,7.99023438 156.867515,8.07454343 156.530273,8.24316406 C156.193032,8.4117847 155.91504,8.65331874 155.696289,8.96777344 C155.477538,9.28222813 155.314616,9.66275818 155.20752,10.109375 C155.100423,10.5559918 155.046875,11.0595675 155.046875,11.6201172 L155.046875,12.4130859 C155.046875,12.9873076 155.115234,13.4999977 155.251953,13.9511719 C155.388673,14.402346 155.581216,14.7851547 155.82959,15.0996094 C156.077963,15.4140641 156.376463,15.6533195 156.725098,15.8173828 C157.073732,15.9814461 157.459959,16.0634766 157.883789,16.0634766 C158.23926,16.0634766 158.541177,16.039551 158.789551,15.9916992 C159.037924,15.9438474 159.247558,15.8846032 159.418457,15.8139648 C159.589356,15.7433265 159.727213,15.6658533 159.832031,15.581543 C159.936849,15.4972327 160.023437,15.4186202 160.091797,15.3457031 L160.091797,13.1103516 L157.788086,13.1103516 L157.788086,12.0439453 L161.397461,12.0439453 L161.397461,15.6943359 Z" id="Model-Training"></path>
                    <g id="icons/campaign" fill-rule="nonzero">
                        <path d="M23.7046816,5.74350661 L23.7046816,1.38861674 C23.7046816,0.909039648 23.4585176,0.477938326 23.0461875,0.235453744 C22.6322754,-0.00798237885 22.1344102,-0.0130044053 21.7145918,0.222396476 C17.7055137,2.46993833 13.3443281,3.78248458 8.75221875,4.12382379 C8.71704492,4.1264141 4.56658594,4.14459912 4.56658594,4.14459912 C3.52418555,4.14459912 2.66261133,4.93348018 2.54337891,5.94676652 L1.69145508,5.94676652 C0.758847656,5.94676652 0,6.70736564 0,7.64230837 L0,11.367489 C0,12.3024317 0.758847656,13.0630837 1.69145508,13.0630837 L2.54327344,13.0630837 C2.629125,13.7923348 3.09930469,14.4049163 3.74482617,14.6912247 L6.77626172,23.0779031 C6.96573633,23.5999295 7.4653418,23.9507313 8.01963281,23.9507313 L11.0617207,23.9507313 C11.4929824,23.9507313 11.8980879,23.7393304 12.1454648,23.3852511 C12.3928418,23.0310661 12.4524844,22.5771278 12.30525,22.1715066 L9.70075195,14.9695507 C13.9449199,15.4115419 17.9821055,16.6929515 21.7145391,18.7853921 C21.9204668,18.9008458 22.145168,18.9584141 22.3695,18.9584141 C22.6024277,18.9583612 22.8351445,18.8962996 23.0460293,18.7722819 C23.4583594,18.5297445 23.7046289,18.098696 23.7046289,17.6190132 L23.7046289,13.2641233 C25.5609316,13.0230661 27,11.4292863 27,9.50384141 C27,7.57834361 25.5609316,5.98451101 23.7046816,5.74350661 Z M2.52866602,11.755348 L1.69145508,11.755348 C1.47803906,11.755348 1.30449023,11.5813744 1.30449023,11.3674361 L1.30449023,7.64230837 C1.30449023,7.42852863 1.47803906,7.25444934 1.69145508,7.25444934 L2.52866602,7.25444934 L2.52866602,11.755348 Z M4.26779297,13.4931278 C4.01203125,13.3782026 3.83315625,13.121022 3.83315625,12.8223965 L3.83315625,6.18734802 L3.83320898,6.18734802 C3.83320898,5.78204405 4.16221875,5.45228194 4.5665332,5.45228194 L8.11729687,5.45228194 L8.11729687,13.5575154 C8.11729687,13.5575154 4.53557812,13.556141 4.52012695,13.5551894 C4.38929297,13.5400176 4.36176563,13.5332511 4.26779297,13.4931278 Z M11.0790176,22.6177797 C11.081127,22.6231189 11.082498,22.6269251 11.0768555,22.6349075 C11.0713184,22.6428899 11.0672051,22.6428899 11.061668,22.6428899 L8.01958008,22.6428899 C8.01182812,22.6428899 8.00470898,22.6379736 8.00233594,22.6315242 L5.19512695,14.8651454 L8.27539453,14.8651454 L11.0790176,22.6177797 Z M22.4001914,17.6190661 C22.4001914,17.6285286 22.4001914,17.6360881 22.3861113,17.6443877 C22.3693418,17.6541145 22.3593223,17.6485639 22.3513066,17.6440705 C18.3417012,15.3963172 13.994543,14.046978 9.42178711,13.6285639 L9.42178711,5.3797533 C13.9949121,4.96070485 18.3420703,3.61125991 22.3511484,1.36371806 C22.359375,1.35922467 22.3695527,1.35367401 22.3861113,1.36340088 C22.4001914,1.37170044 22.4001914,1.37915419 22.4001914,1.38861674 L22.4001914,17.6190661 Z M23.7046816,11.9404229 L23.7046816,7.06720705 C24.8386289,7.29525991 25.6955098,8.30098678 25.6955098,9.50378855 C25.6955098,10.7066432 24.8385762,11.7124229 23.7046816,11.9404229 Z" id="Shape"></path>
                    </g>
                </g>
            </g>
        </g>
    </g>
</svg>