<?xml version="1.0" encoding="UTF-8"?>
<svg width="160px" height="25px" viewBox="0 0 160 25" version="1.1" xmlns="http://www.w3.org/2000/svg" xmlns:xlink="http://www.w3.org/1999/xlink">
    <!-- Generator: Sketch 43.2 (39069) - http://www.bohemiancoding.com/sketch -->
    <title>usage-analysis</title>
    <desc>Created with Sketch.</desc>
    <defs></defs>
    <g id="Page-1" stroke="none" stroke-width="1" fill="none" fill-rule="evenodd">
        <g id="model-optimizer" transform="translate(-20.000000, -240.000000)" fill="#FFFFFF">
            <g id="left-sidebar">
                <g id="usage-analysis" transform="translate(20.000000, 240.500000)">
                    <path d="M51.1621094,9.046875 L51.1621094,15.7871094 C51.1621094,16.3476591 51.0641286,16.837563 50.8681641,17.2568359 C50.6721995,17.6761089 50.4090186,18.0247382 50.0786133,18.3027344 C49.748208,18.5807306 49.36426,18.7892246 48.9267578,18.9282227 C48.4892556,19.0672207 48.0289738,19.1367188 47.5458984,19.1367188 C47.0400365,19.1367188 46.5683616,19.0672207 46.1308594,18.9282227 C45.6933572,18.7892246 45.3139665,18.5807306 44.9926758,18.3027344 C44.6713851,18.0247382 44.418458,17.6761089 44.2338867,17.2568359 C44.0493155,16.837563 43.9570312,16.3476591 43.9570312,15.7871094 L43.9570312,9.046875 L45.2558594,9.046875 L45.2558594,15.7871094 C45.2558594,16.1744811 45.3116856,16.510578 45.4233398,16.7954102 C45.534994,17.0802423 45.6910797,17.3172191 45.8916016,17.5063477 C46.0921234,17.6954762 46.3325181,17.8356115 46.612793,17.9267578 C46.8930678,18.0179041 47.2040999,18.0634766 47.5458984,18.0634766 C47.8922543,18.0634766 48.2067043,18.0179041 48.4892578,17.9267578 C48.7718113,17.8356115 49.0133454,17.6954762 49.2138672,17.5063477 C49.414389,17.3172191 49.5693354,17.0802423 49.6787109,16.7954102 C49.7880865,16.510578 49.8427734,16.1744811 49.8427734,15.7871094 L49.8427734,9.046875 L51.1621094,9.046875 Z M59.0380859,16.484375 C59.0380859,16.251952 59.0027673,16.0468759 58.9321289,15.8691406 C58.8614905,15.6914054 58.7361663,15.5284838 58.5561523,15.3803711 C58.3761384,15.2322584 58.1334651,15.0932624 57.828125,14.9633789 C57.5227849,14.8334954 57.135419,14.700196 56.6660156,14.5634766 C56.1738257,14.4221998 55.7283549,14.2615569 55.3295898,14.081543 C54.9308248,13.901529 54.59131,13.6941744 54.3110352,13.4594727 C54.0307603,13.224771 53.8154304,12.9570328 53.6650391,12.65625 C53.5146477,12.3554672 53.4394531,12.0113952 53.4394531,11.6240234 C53.4394531,11.2366517 53.5203442,10.8777686 53.6821289,10.5473633 C53.8439136,10.216958 54.0729152,9.92985148 54.3691406,9.68603516 C54.6653661,9.44221883 55.0208313,9.25195381 55.4355469,9.11523438 C55.8502625,8.97851494 56.312823,8.91015625 56.8232422,8.91015625 C57.3837919,8.91015625 57.8828103,8.9944653 58.3203125,9.16308594 C58.7578147,9.33170657 59.1258123,9.55501163 59.4243164,9.83300781 C59.7228205,10.111004 59.9495435,10.4322898 60.1044922,10.796875 C60.2594409,11.1614602 60.3369141,11.537433 60.3369141,11.9248047 L59.0175781,11.9248047 C59.0175781,11.6468085 58.973145,11.3893241 58.8842773,11.1523438 C58.7954097,10.9153634 58.6598316,10.7102873 58.4775391,10.5371094 C58.2952465,10.3639314 58.0673842,10.2294927 57.7939453,10.1337891 C57.5205064,10.0380855 57.196942,9.99023438 56.8232422,9.99023438 C56.472329,9.99023438 56.1669935,10.0312496 55.9072266,10.1132812 C55.6474596,10.1953129 55.4332691,10.3081048 55.2646484,10.4516602 C55.0960278,10.5952156 54.9707035,10.764973 54.8886719,10.9609375 C54.8066402,11.156902 54.765625,11.3710926 54.765625,11.6035156 C54.765625,11.8131521 54.8100581,12.0045564 54.8989258,12.1777344 C54.9877934,12.3509123 55.1256501,12.5104159 55.3125,12.65625 C55.4993499,12.8020841 55.7397446,12.9365228 56.0336914,13.0595703 C56.3276382,13.1826178 56.6796854,13.3011062 57.0898438,13.4150391 C57.6549507,13.5745451 58.1425761,13.7511384 58.5527344,13.9448242 C58.9628927,14.1385101 59.3012682,14.3583972 59.5678711,14.6044922 C59.834474,14.8505872 60.0327142,15.1263006 60.1625977,15.4316406 C60.2924811,15.7369807 60.3574219,16.0833314 60.3574219,16.4707031 C60.3574219,16.8763041 60.2753914,17.2431624 60.1113281,17.5712891 C59.9472648,17.8994157 59.7137059,18.1796863 59.4106445,18.4121094 C59.1075831,18.6445324 58.7430034,18.8234043 58.3168945,18.9487305 C57.8907856,19.0740566 57.4156927,19.1367188 56.8916016,19.1367188 C56.5862615,19.1367188 56.280926,19.108236 55.9755859,19.0512695 C55.6702459,18.9943031 55.3774428,18.9088547 55.097168,18.7949219 C54.8168931,18.680989 54.5571301,18.5397144 54.3178711,18.3710938 C54.0786121,18.2024731 53.8701181,18.0065115 53.6923828,17.7832031 C53.5146475,17.5598947 53.3756515,17.3092462 53.2753906,17.03125 C53.1751297,16.7532538 53.125,16.4479183 53.125,16.1152344 L54.4443359,16.1152344 C54.4443359,16.457033 54.5115553,16.749836 54.6459961,16.9936523 C54.7804369,17.2374687 54.9604481,17.4391268 55.1860352,17.5986328 C55.4116222,17.7581388 55.6713852,17.8754879 55.965332,17.9506836 C56.2592788,18.0258793 56.5680322,18.0634766 56.8916016,18.0634766 C57.5843134,18.0634766 58.1152325,17.9222019 58.484375,17.6396484 C58.8535175,17.3570949 59.0380859,16.9720076 59.0380859,16.484375 Z M68.0351562,16.4023438 L63.8652344,16.4023438 L62.9287109,19 L61.5751953,19 L65.3759766,9.046875 L66.5244141,9.046875 L70.3320312,19 L68.9853516,19 L68.0351562,16.4023438 Z M64.2617188,15.3222656 L67.6455078,15.3222656 L65.9501953,10.6669922 L64.2617188,15.3222656 Z M79.4453125,17.6943359 C79.3496089,17.8310554 79.2174488,17.9825838 79.0488281,18.1489258 C78.8802075,18.3152678 78.6580417,18.4713534 78.3823242,18.6171875 C78.1066067,18.7630216 77.7682312,18.8860672 77.3671875,18.9863281 C76.9661438,19.086589 76.4853544,19.1367188 75.9248047,19.1367188 C75.3186819,19.1367188 74.7615585,19.0296235 74.253418,18.8154297 C73.7452774,18.6012359 73.3077818,18.2924825 72.940918,17.8891602 C72.5740542,17.4858378 72.288087,16.9913766 72.0830078,16.4057617 C71.8779287,15.8201468 71.7753906,15.1559282 71.7753906,14.4130859 L71.7753906,13.6337891 C71.7753906,12.8909468 71.8631176,12.2278675 72.0385742,11.6445312 C72.2140308,11.061195 72.4715152,10.5667338 72.8110352,10.1611328 C73.1505551,9.75553183 73.5686824,9.44563909 74.0654297,9.23144531 C74.562177,9.01725153 75.1318327,8.91015625 75.7744141,8.91015625 C76.3440784,8.91015625 76.8430968,8.98649012 77.2714844,9.13916016 C77.6998719,9.29183019 78.0644516,9.50374213 78.3652344,9.77490234 C78.6660171,10.0460626 78.9052725,10.3684877 79.0830078,10.7421875 C79.2607431,11.1158873 79.3815101,11.5237608 79.4453125,11.9658203 L78.1328125,11.9658203 C78.082682,11.6969388 78.0040695,11.4428723 77.8969727,11.2036133 C77.7898758,10.9643543 77.6429046,10.754721 77.4560547,10.574707 C77.2692048,10.3946931 77.0390639,10.2522792 76.765625,10.1474609 C76.4921861,10.0426427 76.1640644,9.99023438 75.78125,9.99023438 C75.3164039,9.99023438 74.9153663,10.0745434 74.578125,10.2431641 C74.2408837,10.4117847 73.9628917,10.6533187 73.7441406,10.9677734 C73.5253895,11.2822281 73.362468,11.6627582 73.2553711,12.109375 C73.1482742,12.5559918 73.0947266,13.0595675 73.0947266,13.6201172 L73.0947266,14.4130859 C73.0947266,14.9873076 73.1630853,15.4999977 73.2998047,15.9511719 C73.4365241,16.402346 73.6290678,16.7851547 73.8774414,17.0996094 C74.125815,17.4140641 74.4243147,17.6533195 74.7729492,17.8173828 C75.1215838,17.9814461 75.5078104,18.0634766 75.9316406,18.0634766 C76.2871112,18.0634766 76.5890287,18.039551 76.8374023,17.9916992 C77.085776,17.9438474 77.2954093,17.8846032 77.4663086,17.8139648 C77.6372079,17.7433265 77.7750646,17.6658533 77.8798828,17.581543 C77.984701,17.4972327 78.0712887,17.4186202 78.1396484,17.3457031 L78.1396484,15.1103516 L75.8359375,15.1103516 L75.8359375,14.0439453 L79.4453125,14.0439453 L79.4453125,17.6943359 Z M87.7587891,14.3994141 L83.4453125,14.3994141 L83.4453125,17.9267578 L88.4560547,17.9267578 L88.4560547,19 L82.1328125,19 L82.1328125,9.046875 L88.3876953,9.046875 L88.3876953,10.1269531 L83.4453125,10.1269531 L83.4453125,13.3261719 L87.7587891,13.3261719 L87.7587891,14.3994141 Z M100.051758,16.4023438 L95.8818359,16.4023438 L94.9453125,19 L93.5917969,19 L97.3925781,9.046875 L98.5410156,9.046875 L102.348633,19 L101.001953,19 L100.051758,16.4023438 Z M96.2783203,15.3222656 L99.6621094,15.3222656 L97.9667969,10.6669922 L96.2783203,15.3222656 Z M111.837891,19 L110.518555,19 L105.507812,11.3300781 L105.507812,19 L104.188477,19 L104.188477,9.046875 L105.507812,9.046875 L110.532227,16.7509766 L110.532227,9.046875 L111.837891,9.046875 L111.837891,19 Z M120.288086,16.4023438 L116.118164,16.4023438 L115.181641,19 L113.828125,19 L117.628906,9.046875 L118.777344,9.046875 L122.584961,19 L121.238281,19 L120.288086,16.4023438 Z M116.514648,15.3222656 L119.898438,15.3222656 L118.203125,10.6669922 L116.514648,15.3222656 Z M125.744141,17.9267578 L130.460938,17.9267578 L130.460938,19 L124.424805,19 L124.424805,9.046875 L125.744141,9.046875 L125.744141,17.9267578 Z M133.859375,14.0439453 L136.457031,9.046875 L137.947266,9.046875 L134.515625,15.2880859 L134.515625,19 L133.203125,19 L133.203125,15.2880859 L129.771484,9.046875 L131.275391,9.046875 L133.859375,14.0439453 Z M144.927734,16.484375 C144.927734,16.251952 144.892416,16.0468759 144.821777,15.8691406 C144.751139,15.6914054 144.625815,15.5284838 144.445801,15.3803711 C144.265787,15.2322584 144.023114,15.0932624 143.717773,14.9633789 C143.412433,14.8334954 143.025067,14.700196 142.555664,14.5634766 C142.063474,14.4221998 141.618003,14.2615569 141.219238,14.081543 C140.820473,13.901529 140.480958,13.6941744 140.200684,13.4594727 C139.920409,13.224771 139.705079,12.9570328 139.554688,12.65625 C139.404296,12.3554672 139.329102,12.0113952 139.329102,11.6240234 C139.329102,11.2366517 139.409993,10.8777686 139.571777,10.5473633 C139.733562,10.216958 139.962564,9.92985148 140.258789,9.68603516 C140.555015,9.44221883 140.91048,9.25195381 141.325195,9.11523438 C141.739911,8.97851494 142.202471,8.91015625 142.712891,8.91015625 C143.27344,8.91015625 143.772459,8.9944653 144.209961,9.16308594 C144.647463,9.33170657 145.015461,9.55501163 145.313965,9.83300781 C145.612469,10.111004 145.839192,10.4322898 145.994141,10.796875 C146.149089,11.1614602 146.226562,11.537433 146.226562,11.9248047 L144.907227,11.9248047 C144.907227,11.6468085 144.862793,11.3893241 144.773926,11.1523438 C144.685058,10.9153634 144.54948,10.7102873 144.367188,10.5371094 C144.184895,10.3639314 143.957033,10.2294927 143.683594,10.1337891 C143.410155,10.0380855 143.08659,9.99023438 142.712891,9.99023438 C142.361977,9.99023438 142.056642,10.0312496 141.796875,10.1132812 C141.537108,10.1953129 141.322918,10.3081048 141.154297,10.4516602 C140.985676,10.5952156 140.860352,10.764973 140.77832,10.9609375 C140.696289,11.156902 140.655273,11.3710926 140.655273,11.6035156 C140.655273,11.8131521 140.699707,12.0045564 140.788574,12.1777344 C140.877442,12.3509123 141.015299,12.5104159 141.202148,12.65625 C141.388998,12.8020841 141.629393,12.9365228 141.92334,13.0595703 C142.217287,13.1826178 142.569334,13.3011062 142.979492,13.4150391 C143.544599,13.5745451 144.032225,13.7511384 144.442383,13.9448242 C144.852541,14.1385101 145.190917,14.3583972 145.45752,14.6044922 C145.724122,14.8505872 145.922363,15.1263006 146.052246,15.4316406 C146.18213,15.7369807 146.24707,16.0833314 146.24707,16.4707031 C146.24707,16.8763041 146.16504,17.2431624 146.000977,17.5712891 C145.836913,17.8994157 145.603354,18.1796863 145.300293,18.4121094 C144.997232,18.6445324 144.632652,18.8234043 144.206543,18.9487305 C143.780434,19.0740566 143.305341,19.1367188 142.78125,19.1367188 C142.47591,19.1367188 142.170574,19.108236 141.865234,19.0512695 C141.559894,18.9943031 141.267091,18.9088547 140.986816,18.7949219 C140.706542,18.680989 140.446779,18.5397144 140.20752,18.3710938 C139.968261,18.2024731 139.759767,18.0065115 139.582031,17.7832031 C139.404296,17.5598947 139.2653,17.3092462 139.165039,17.03125 C139.064778,16.7532538 139.014648,16.4479183 139.014648,16.1152344 L140.333984,16.1152344 C140.333984,16.457033 140.401204,16.749836 140.535645,16.9936523 C140.670085,17.2374687 140.850097,17.4391268 141.075684,17.5986328 C141.301271,17.7581388 141.561034,17.8754879 141.85498,17.9506836 C142.148927,18.0258793 142.457681,18.0634766 142.78125,18.0634766 C143.473962,18.0634766 144.004881,17.9222019 144.374023,17.6396484 C144.743166,17.3570949 144.927734,16.9720076 144.927734,16.484375 Z M149.836914,19 L148.524414,19 L148.524414,9.046875 L149.836914,9.046875 L149.836914,19 Z M158.041016,16.484375 C158.041016,16.251952 158.005697,16.0468759 157.935059,15.8691406 C157.86442,15.6914054 157.739096,15.5284838 157.559082,15.3803711 C157.379068,15.2322584 157.136395,15.0932624 156.831055,14.9633789 C156.525715,14.8334954 156.138349,14.700196 155.668945,14.5634766 C155.176755,14.4221998 154.731285,14.2615569 154.33252,14.081543 C153.933755,13.901529 153.59424,13.6941744 153.313965,13.4594727 C153.03369,13.224771 152.81836,12.9570328 152.667969,12.65625 C152.517577,12.3554672 152.442383,12.0113952 152.442383,11.6240234 C152.442383,11.2366517 152.523274,10.8777686 152.685059,10.5473633 C152.846843,10.216958 153.075845,9.92985148 153.37207,9.68603516 C153.668296,9.44221883 154.023761,9.25195381 154.438477,9.11523438 C154.853192,8.97851494 155.315753,8.91015625 155.826172,8.91015625 C156.386722,8.91015625 156.88574,8.9944653 157.323242,9.16308594 C157.760744,9.33170657 158.128742,9.55501163 158.427246,9.83300781 C158.72575,10.111004 158.952473,10.4322898 159.107422,10.796875 C159.262371,11.1614602 159.339844,11.537433 159.339844,11.9248047 L158.020508,11.9248047 C158.020508,11.6468085 157.976075,11.3893241 157.887207,11.1523438 C157.798339,10.9153634 157.662761,10.7102873 157.480469,10.5371094 C157.298176,10.3639314 157.070314,10.2294927 156.796875,10.1337891 C156.523436,10.0380855 156.199872,9.99023438 155.826172,9.99023438 C155.475259,9.99023438 155.169923,10.0312496 154.910156,10.1132812 C154.650389,10.1953129 154.436199,10.3081048 154.267578,10.4516602 C154.098957,10.5952156 153.973633,10.764973 153.891602,10.9609375 C153.80957,11.156902 153.768555,11.3710926 153.768555,11.6035156 C153.768555,11.8131521 153.812988,12.0045564 153.901855,12.1777344 C153.990723,12.3509123 154.12858,12.5104159 154.31543,12.65625 C154.50228,12.8020841 154.742674,12.9365228 155.036621,13.0595703 C155.330568,13.1826178 155.682615,13.3011062 156.092773,13.4150391 C156.65788,13.5745451 157.145506,13.7511384 157.555664,13.9448242 C157.965822,14.1385101 158.304198,14.3583972 158.570801,14.6044922 C158.837404,14.8505872 159.035644,15.1263006 159.165527,15.4316406 C159.295411,15.7369807 159.360352,16.0833314 159.360352,16.4707031 C159.360352,16.8763041 159.278321,17.2431624 159.114258,17.5712891 C158.950194,17.8994157 158.716636,18.1796863 158.413574,18.4121094 C158.110513,18.6445324 157.745933,18.8234043 157.319824,18.9487305 C156.893715,19.0740566 156.418622,19.1367188 155.894531,19.1367188 C155.589191,19.1367188 155.283856,19.108236 154.978516,19.0512695 C154.673176,18.9943031 154.380372,18.9088547 154.100098,18.7949219 C153.819823,18.680989 153.56006,18.5397144 153.320801,18.3710938 C153.081542,18.2024731 152.873048,18.0065115 152.695312,17.7832031 C152.517577,17.5598947 152.378581,17.3092462 152.27832,17.03125 C152.178059,16.7532538 152.12793,16.4479183 152.12793,16.1152344 L153.447266,16.1152344 C153.447266,16.457033 153.514485,16.749836 153.648926,16.9936523 C153.783367,17.2374687 153.963378,17.4391268 154.188965,17.5986328 C154.414552,17.7581388 154.674315,17.8754879 154.968262,17.9506836 C155.262209,18.0258793 155.570962,18.0634766 155.894531,18.0634766 C156.587243,18.0634766 157.118162,17.9222019 157.487305,17.6396484 C157.856447,17.3570949 158.041016,16.9720076 158.041016,16.484375 Z" id="Usage-Analysis"></path>
                    <g id="icons/usage-analysis" fill-rule="nonzero">
                        <path d="M26.362125,22.69904 L0.637875,22.69904 C0.285556641,22.69904 0,22.98784 0,23.34416 C0,23.7003733 0.285556641,23.98928 0.637875,23.98928 L26.362125,23.98928 C26.7143379,23.98928 27,23.7003733 27,23.34416 C27,22.9878933 26.7144434,22.69904 26.362125,22.69904 Z" id="Shape"></path>
                        <path d="M24.6991992,3.05626667 L20.2195195,3.05626667 C19.8673066,3.05626667 19.5816445,3.34517333 19.5816445,3.70138667 L19.5816445,8.08752 L16.3776621,8.08752 L16.3776621,0.65584 C16.3776621,0.299626667 16.092,0.01072 15.7397871,0.01072 L11.260002,0.01072 C10.9077891,0.01072 10.622127,0.299626667 10.622127,0.65584 L10.622127,12.86288 L7.41814453,12.86288 L7.41814453,7.3792 C7.41814453,7.02288 7.13248242,6.73408 6.78026953,6.73408 L2.30058984,6.73408 C1.94827148,6.73408 1.66271484,7.02288 1.66271484,7.3792 L1.66271484,19.7292267 C1.66271484,20.0855467 1.94837695,20.3743467 2.30058984,20.3743467 L6.78026953,20.3743467 L11.2599492,20.3743467 L15.7397344,20.3743467 L20.2194668,20.3743467 L24.6991465,20.3743467 C25.0514648,20.3743467 25.3370215,20.08544 25.3370215,19.7292267 L25.3370215,3.70138667 C25.3370742,3.34517333 25.0515176,3.05626667 24.6991992,3.05626667 Z M6.14244727,19.0841067 L2.93846484,19.0841067 L2.93846484,8.02432 L6.14244727,8.02432 L6.14244727,19.0841067 Z M10.6222324,19.0841067 L7.41825,19.0841067 L7.41825,14.15312 L10.6222324,14.15312 L10.6222324,19.0841067 Z M15.1019648,8.73264 L15.1019648,19.0841067 L11.8979297,19.0841067 L11.8979297,1.30096 L15.1019648,1.30096 L15.1019648,8.73264 Z M19.58175,19.0841067 L16.3777676,19.0841067 L16.3777676,9.37776 L19.58175,9.37776 L19.58175,19.0841067 Z M24.0614297,19.0841067 L20.8575,19.0841067 L20.8575,8.73264 L20.8575,4.34650667 L24.0614824,4.34650667 L24.0614824,19.0841067 L24.0614297,19.0841067 Z" id="Shape"></path>
                    </g>
                </g>
            </g>
        </g>
    </g>
</svg>